{"title":"Black Sails S01E01 SCRRip x264 AAC [GWC].mp4","uid":9480072,"size":243538748,"categoryP":"video","categoryS":"tv_shows","magnet":"?xt=urn:btih:eac1b68cfd95b928c231ea7dca9c3aae8caf555f&amp;dn=Black+Sails+S01E01+SCRRip+x264+AAC+%5BGWC%5D.mp4&amp;tr=udp%3A%2F%2Ftracker.openbittorrent.com%3A80&amp;tr=udp%3A%2F%2Fopen.demonii.com%3A1337&amp;tr=udp%3A%2F%2Ftracker.coppersurfer.tk%3A6969&amp;tr=udp%3A%2F%2Fexodus.desync.com%3A6969","seeders":1,"leechers":0,"uploader":"canc232","files":1,"time":1389778305,"description":"Black Sails S01E01 SCRRip x264 AAC [GWC]\n\n\nIMDB : &lt;a href=&quot;\nhttp://www.imdb.com/title/tt2375692/&quot; rel=&quot;nofollow&quot; target=&quot;_NEW&quot;&gt;\nhttp://www.imdb.com/title/tt2375692/&lt;/a&gt;\n\n\nSCREENS : &lt;a href=&quot;\nhttp://s20.postimg.org/fq2b330cd/Black_Sails_S01_E01_SCR_13_38_04.jpg&quot; rel=&quot;nofollow&quot; target=&quot;_NEW&quot;&gt;\nhttp://s20.postimg.org/fq2b330cd/Black_Sails_S01_E01_SCR_13_38_04.jpg&lt;/a&gt; &lt;a href=&quot;\nhttp://s20.postimg.org/90vrn2f0d/Black_Sails_S01_E01_SCR_13_39_00.jpg&quot; rel=&quot;nofollow&quot; target=&quot;_NEW&quot;&gt;\nhttp://s20.postimg.org/90vrn2f0d/Black_Sails_S01_E01_SCR_13_39_00.jpg&lt;/a&gt; &lt;a href=&quot;\nhttp://s20.postimg.org/ib7vqlpq5/Black_Sails_S01_E01_SCR_13_39_34.jpg&quot; rel=&quot;nofollow&quot; target=&quot;_NEW&quot;&gt;\nhttp://s20.postimg.org/ib7vqlpq5/Black_Sails_S01_E01_SCR_13_39_34.jpg&lt;/a&gt; &lt;a href=&quot;\nhttp://s20.postimg.org/nlcuhw9z1/Black_Sails_S01_E01_SCR_13_39_45.jpg&quot; rel=&quot;nofollow&quot; target=&quot;_NEW&quot;&gt;\nhttp://s20.postimg.org/nlcuhw9z1/Black_Sails_S01_E01_SCR_13_39_45.jpg&lt;/a&gt;\n\n\nMEDIA INFO :\nGeneral \nFormat : MPEG-4 \nFormat profile : Base Media \nCodec ID : isom \nFile size : 232 MiB \nDuration : 1h 5mn \nOverall bit rate mode : Variable \nOverall bit rate : 499 Kbps \n\nVideo \nFormat : AVC \nFormat profile : &lt;a class=&quot;__cf_email__&quot; href=&quot;/cdn-cgi/l/email-protection&quot; data-cfemail=&quot;4a02232d220a0679647a&quot;&gt;[email&amp;#160;protected]&lt;/a&gt;&lt;script cf-hash='f9e31' type=&quot;text/javascript&quot;&gt;\n/* &lt;![CDATA[ */!function(){try{var t=&quot;currentScript&quot;in document?document.currentScript:function(){for(var t=document.getElementsByTagName(&quot;script&quot;),e=t.length;e--;)if(t[e].getAttribute(&quot;cf-hash&quot;))return t[e]}();if(t&amp;&amp;t.previousSibling){var e,r,n,i,c=t.previousSibling,a=c.getAttribute(&quot;data-cfemail&quot;);if(a){for(e=&quot;&quot;,r=parseInt(a.substr(0,2),16),n=2;a.length-n;n+=2)i=parseInt(a.substr(n,2),16)^r,e+=String.fromCharCode(i);e=document.createTextNode(e),c.parentNode.replaceChild(e,c)}}}catch(u){}}();/* ]]&gt; */&lt;/script&gt; \nFormat settings, CABAC : Yes \nFormat settings, ReFrames : 4 frames \nDuration : 1h 5mn \nBit rate : 435 Kbps \nMaximum bit rate : 1 647 Kbps \nWidth : 720 pixels \nHeight : 404 pixels \nFrame rate : 29.970 fps \nStream size : 203 MiB (87%) \nTitle : Black Sails S01E01 SCRRip x264 AAC [GWC] \nWriting library : x264 core \n\nAudio \nFormat : AAC \nFormat profile : HE-AAC / LC \nDuration : 1h 5mn \nBit rate mode : Variable \nChannel(s) : 2 channels \nSampling rate : 48.0 KHz / 24.0 KHz \nStream size : 27.9 MiB (12%) \nLanguage : English","torrent":{"xt":"urn:btih:eac1b68cfd95b928c231ea7dca9c3aae8caf555f","amp;dn":"Black+Sails+S01E01+SCRRip+x264+AAC+%5BGWC%5D.mp4","amp;tr":["udp%3A%2F%2Ftracker.openbittorrent.com%3A80","udp%3A%2F%2Fopen.demonii.com%3A1337","udp%3A%2F%2Ftracker.coppersurfer.tk%3A6969","udp%3A%2F%2Fexodus.desync.com%3A6969"],"infoHash":"eac1b68cfd95b928c231ea7dca9c3aae8caf555f","infoHashBuffer":{"type":"Buffer","data":[234,193,182,140,253,149,185,40,194,49,234,125,202,156,58,174,140,175,85,95]},"announce":[],"urlList":[]}}